HIERARCHY
ROOT joint_Root
{
	OFFSET 0.0 0.0 0.0
	CHANNELS 6 Xposition Yposition Zposition Zrotation Xrotation Yrotation 
	JOINT Hips
	{
		OFFSET -0.726466 93.3139 -2.00062
		CHANNELS 6 Xposition Yposition Zposition Zrotation Xrotation Yrotation 
		JOINT Spine
		{
			OFFSET 15.7357 0.0 0.0
			CHANNELS 6 Xposition Yposition Zposition Zrotation Xrotation Yrotation 
			JOINT Chest
			{
				OFFSET 8.98455 -0.406207 0.0
				CHANNELS 6 Xposition Yposition Zposition Zrotation Xrotation Yrotation 
				JOINT Neck
				{
					OFFSET 16.3773 0.0 0.0
					CHANNELS 6 Xposition Yposition Zposition Zrotation Xrotation Yrotation 
					JOINT Head
					{
						OFFSET 6.45672 0.0 0.0
						CHANNELS 6 Xposition Yposition Zposition Zrotation Xrotation Yrotation 
						End Site
						{
							OFFSET 0.0 0.0 0.0
						}
					}
				}
				JOINT Shoulder_L
				{
					OFFSET 12.9942 -0.242716 4.98039
					CHANNELS 6 Xposition Yposition Zposition Zrotation Xrotation Yrotation 
					JOINT UpperArm_L
					{
						OFFSET 5.34809 0.0 0.0
						CHANNELS 6 Xposition Yposition Zposition Zrotation Xrotation Yrotation 
						JOINT LowerArm_L
						{
							OFFSET 24.3286 1.87007e-05 0.0
							CHANNELS 6 Xposition Yposition Zposition Zrotation Xrotation Yrotation 
							JOINT Hand_L
							{
								OFFSET 22.2916 0.0 0.0
								CHANNELS 6 Xposition Yposition Zposition Zrotation Xrotation Yrotation 
								End Site
								{
									OFFSET 0.0 0.0 0.0
								}
							}
						}
					}
				}
				JOINT Shoulder_R
				{
					OFFSET 12.9945 -0.242716 -4.98039
					CHANNELS 6 Xposition Yposition Zposition Zrotation Xrotation Yrotation 
					JOINT UpperArm_R
					{
						OFFSET -5.34813 0.0 0.0
						CHANNELS 6 Xposition Yposition Zposition Zrotation Xrotation Yrotation 
						JOINT LowerArm_R
						{
							OFFSET -24.3289 0.000322201 0.0
							CHANNELS 6 Xposition Yposition Zposition Zrotation Xrotation Yrotation 
							JOINT Hand_R
							{
								OFFSET -22.2915 -0.000108084 0.0
								CHANNELS 6 Xposition Yposition Zposition Zrotation Xrotation Yrotation 
								End Site
								{
									OFFSET 0.0 0.0 0.0
								}
							}
						}
					}
				}
			}
		}
		JOINT UpperLeg_L
		{
			OFFSET -2.19248 -6.46944 0.0
			CHANNELS 6 Xposition Yposition Zposition Zrotation Xrotation Yrotation 
			JOINT LowerLeg_L
			{
				OFFSET 39.0811 0.0 -1.23785e-05
				CHANNELS 6 Xposition Yposition Zposition Zrotation Xrotation Yrotation 
				JOINT Foot_L
				{
					OFFSET 40.9854 0.0 -1.26872e-05
					CHANNELS 6 Xposition Yposition Zposition Zrotation Xrotation Yrotation 
					JOINT Toes_L
					{
						OFFSET 11.7543 0.0 0.0
						CHANNELS 6 Xposition Yposition Zposition Zrotation Xrotation Yrotation 
						End Site
						{
							OFFSET 0.0 0.0 0.0
						}
					}
				}
			}
		}
		JOINT UpperLeg_R
		{
			OFFSET -2.19251 6.46944 0.0
			CHANNELS 6 Xposition Yposition Zposition Zrotation Xrotation Yrotation 
			JOINT LowerLeg_R
			{
				OFFSET -39.0811 -0.00228153 -0.0401928
				CHANNELS 6 Xposition Yposition Zposition Zrotation Xrotation Yrotation 
				JOINT Foot_R
				{
					OFFSET -40.9854 0.0 0.0
					CHANNELS 6 Xposition Yposition Zposition Zrotation Xrotation Yrotation 
					JOINT Toes_R
					{
						OFFSET -11.7543 0.0 0.0
						CHANNELS 6 Xposition Yposition Zposition Zrotation Xrotation Yrotation 
						End Site
						{
							OFFSET 0.0 0.0 0.0
						}
					}
				}
			}
		}
	}
}
MOTION
Frames:	5
Frame Time:	0.0333333
0.000000 0.000000 0.000000 0.000000 0.000000 -0.000000 -1.259360 92.098400 0.334748 88.024300 -0.482501 5.635780 15.735700 0.000005 -0.000001 85.633900 84.869700 -85.303300 8.984550 -0.406207 -0.000000 2.467360 -0.795782 0.677737 16.377300 -0.000001 -0.000001 4.074720 -3.077100 0.901735 6.456720 -0.000001 -0.000000 7.712500 -3.561740 -0.412528 12.994200 -0.242716 4.980390 -89.929200 -0.223145 -72.396700 5.348090 -0.000007 -0.000001 -69.172300 40.148000 -13.749500 24.328600 0.000019 0.000005 1.472790 3.747660 -21.471800 22.291600 -0.000001 0.000005 5.573760 5.458480 -4.945310 12.994500 -0.242716 -4.980390 88.343500 5.446210 -73.054300 -5.348130 -0.000001 -0.000004 -64.554800 40.189500 -17.701500 -24.328900 0.000322 -0.000009 2.630060 8.328320 -17.602100 -22.291500 -0.000108 -0.000004 9.956540 5.379170 -2.270990 -2.192480 -6.469440 -0.000000 -174.411000 -8.741620 -0.816691 39.081100 -0.000007 -0.000012 -0.128158 0.291974 23.698600 40.985400 -0.000006 -0.000013 -0.448601 4.596630 -67.273200 11.754300 -0.000000 0.000003 -0.000060 -0.000663 -16.603200 -2.192510 6.469440 -0.000001 179.315000 16.012300 -177.800000 -39.081100 -0.002282 -0.040193 -0.064338 0.186567 19.933500 -40.985400 0.000008 0.000006 2.984080 8.225860 -66.791100 -11.754300 -0.000006 -0.000006 -0.007007 -0.079724 -19.818600
0.000000 0.000000 0.000000 0.000000 0.000000 -0.000000 -1.257560 92.093800 0.316292 88.020100 -0.390225 5.684220 15.735700 0.000005 -0.000001 85.171000 84.849600 -84.872800 8.984550 -0.406207 -0.000000 2.500730 -0.880127 0.614914 16.377300 -0.000001 -0.000001 4.041520 -3.049610 0.869631 6.456720 -0.000001 -0.000000 7.605390 -3.497280 -0.590746 12.994200 -0.242716 4.980390 -89.909000 -0.287014 -72.398800 5.348090 -0.000007 -0.000001 -69.204500 40.152700 -13.734900 24.328600 0.000019 0.000005 1.425840 3.634480 -21.437100 22.291600 -0.000001 0.000005 5.583570 5.460060 -5.003220 12.994500 -0.242716 -4.980390 88.228400 5.789810 -72.954200 -5.348130 -0.000001 -0.000004 -63.239600 40.016600 -18.315400 -24.328900 0.000322 -0.000009 3.000620 8.575940 -19.373100 -22.291500 -0.000108 -0.000004 8.208810 5.365850 -1.856150 -2.192480 -6.469440 -0.000000 -174.408000 -8.690870 -0.822046 39.081100 -0.000007 -0.000012 -0.127735 0.290279 23.751600 40.985400 -0.000006 -0.000013 -0.435371 4.629930 -67.280000 11.754300 -0.000000 0.000003 -0.000053 -0.000594 -16.600600 -2.192510 6.469440 -0.000001 179.294000 16.070500 -177.766000 -39.081100 -0.002282 -0.040193 -0.064939 0.187928 19.962500 -40.985400 0.000008 0.000006 2.958620 8.226300 -66.798800 -11.754300 -0.000006 -0.000006 -0.007123 -0.080714 -19.859100
0.000000 0.000000 0.000000 0.000000 0.000000 -0.000000 -1.239230 92.098900 0.267195 88.029100 -0.406390 5.659340 15.735700 0.000005 -0.000001 84.833300 84.854000 -84.556700 8.984550 -0.406207 -0.000000 2.486800 -0.938814 0.572967 16.377300 -0.000001 -0.000001 4.010940 -2.987710 0.766217 6.456720 -0.000001 -0.000000 7.471780 -3.382920 -0.770030 12.994200 -0.242716 4.980390 -89.879100 -0.381631 -72.423600 5.348090 -0.000007 -0.000001 -69.395100 40.049300 -13.565100 24.328600 0.000019 0.000005 1.418010 3.607870 -21.472600 22.291600 -0.000001 0.000005 5.584860 5.460030 -5.002000 12.994500 -0.242716 -4.980390 88.125500 6.049260 -72.747100 -5.348130 -0.000001 -0.000004 -61.516100 39.288900 -19.172900 -24.328900 0.000322 -0.000009 3.447010 8.431330 -22.341100 -22.291500 -0.000108 -0.000004 6.646450 5.363330 -1.783170 -2.192480 -6.469440 -0.000000 -174.426000 -8.796430 -0.881846 39.081100 -0.000007 -0.000012 -0.128022 0.290943 23.750800 40.985400 -0.000006 -0.000013 -0.403483 4.690430 -67.242300 11.754300 -0.000000 0.000003 -0.000055 -0.000619 -16.601500 -2.192510 6.469440 -0.000001 179.289000 16.047900 -177.833000 -39.081100 -0.002282 -0.040193 -0.065969 0.190766 19.962200 -40.985400 0.000008 0.000006 2.879390 8.223570 -66.744400 -11.754300 -0.000006 -0.000006 -0.007027 -0.079897 -19.825700
0.000000 0.000000 0.000000 0.000000 0.000000 -0.000000 -1.201480 92.108900 0.224791 88.006500 -0.483128 5.674390 15.735700 0.000005 -0.000001 84.233100 84.857500 -83.952900 8.984550 -0.406207 -0.000000 2.469970 -1.045580 0.582342 16.377300 -0.000001 -0.000001 3.981380 -2.931430 0.692633 6.456720 -0.000001 -0.000000 7.377440 -3.157650 -1.126170 12.994200 -0.242716 4.980390 -89.854800 -0.460193 -72.483100 5.348090 -0.000007 -0.000001 -69.579800 39.999800 -13.305100 24.328600 0.000019 0.000005 1.451270 3.690750 -21.482700 22.291600 -0.000001 0.000005 5.495280 5.460080 -5.003850 12.994500 -0.242716 -4.980390 88.077100 6.102700 -72.473900 -5.348130 -0.000001 -0.000004 -59.084900 38.302100 -20.754400 -24.328900 0.000322 -0.000009 3.805570 7.781230 -26.173600 -22.291500 -0.000108 -0.000004 5.835360 5.371160 -2.022700 -2.192480 -6.469440 -0.000000 -174.426000 -8.811420 -0.866154 39.081100 -0.000007 -0.000012 -0.127180 0.289428 23.721700 40.985400 -0.000006 -0.000013 -0.387792 4.658420 -67.213100 11.754300 -0.000000 0.000003 -0.000051 -0.000573 -16.599800 -2.192510 6.469440 -0.000001 179.309000 15.968800 -177.844000 -39.081100 -0.002282 -0.040193 -0.063766 0.184987 19.933700 -40.985400 0.000008 0.000006 2.956480 8.219750 -66.703500 -11.754300 -0.000006 -0.000006 -0.007090 -0.080432 -19.847500
0.000000 0.000000 0.000000 0.000000 0.000000 -0.000000 -1.130500 92.113400 0.183605 87.971200 -0.737495 5.637740 15.735700 0.000005 -0.000001 83.914500 84.889000 -83.635000 8.984550 -0.406207 -0.000000 2.401530 -1.095890 0.581471 16.377300 -0.000001 -0.000001 3.935840 -2.827470 0.622223 6.456720 -0.000001 -0.000000 7.262100 -2.893530 -1.495860 12.994200 -0.242716 4.980390 -89.841100 -0.503927 -72.495700 5.348090 -0.000007 -0.000001 -69.594200 40.082200 -13.121000 24.328600 0.000019 0.000005 1.400340 3.566160 -21.454500 22.291600 -0.000001 0.000005 5.433190 5.456170 -4.861440 12.994500 -0.242716 -4.980390 88.069200 6.004520 -72.137200 -5.348130 -0.000001 -0.000004 -55.759700 37.090800 -23.224300 -24.328900 0.000322 -0.000009 4.176470 7.015640 -30.880700 -22.291500 -0.000108 -0.000004 5.547890 5.365780 -1.856520 -2.192480 -6.469440 -0.000000 -174.432000 -9.004950 -0.904001 39.081100 -0.000007 -0.000012 -0.127118 0.288979 23.744100 40.985400 -0.000006 -0.000013 -0.357799 4.558150 -67.219100 11.754300 -0.000000 0.000003 -0.000050 -0.000562 -16.599400 -2.192510 6.469440 -0.000001 179.340000 15.750200 -177.928000 -39.081100 -0.002282 -0.040193 -0.064206 0.186384 19.915600 -40.985400 0.000008 0.000006 2.849550 8.250050 -66.620200 -11.754300 -0.000006 -0.000006 -0.007127 -0.080746 -19.860300
